<?xml version="1.0" standalone="no"?>
<!DOCTYPE svg PUBLIC "-//W3C//DTD SVG 1.1//EN"
  "http://www.w3.org/Graphics/SVG/1.1/DTD/svg11.dtd">
<svg width="202mm" height="122mm" viewBox="-101 -61 202 122" xmlns="http://www.w3.org/2000/svg" version="1.1">
	<title>svgOutput</title>
	<desc>made with tinkercad</desc>
<path d="M 14.079000473022461 -46.23699951171875 L 15 -46.952510833740234 L 15.324999809265137 -47.20500183105469 L 16.384000778198242 -47.61600875854492 L 16.82200050354004 -47.7859992980957 L 18.572999954223633 -47.97999954223633 L 19.899999618530273 -47.88399887084961 L 21.231000900268555 -47.59600067138672 L 22.56599998474121 -47.117000579833984 L 22.667436599731445 -47.285186767578125 L 22.897798538208008 -47.66712951660156 L 23.40970230102539 -48.51587677001953 L 23.60700035095215 -48.84299850463867 L 22.731016159057617 -49.152000427246094 L 22.09600067138672 -49.375999450683594 L 20.417999267578125 -49.696998596191406 L 18.572999954223633 -49.803001403808594 L 16.384000778198242 -49.58592987060547 L 16.062000274658203 -49.55400085449219 L 15 -49.18143081665039 L 14.916111946105957 -49.152000427246094 L 14.603165626525879 -49.042213439941406 L 13.927000045776367 -48.80500030517578 L 13.078136444091797 -48.201568603515625 L 12.170000076293945 -47.555999755859375 L 11.886592864990234 -47.19255447387695 L 10.87399959564209 -45.89400100708008 L 10.095999717712402 -43.880001068115234 L 10 -43.007137298583984 L 9.836000442504883 -41.51599884033203 L 9.889857292175293 -40.959999084472656 L 10 -39.822940826416016 L 10.011491775512695 -39.70430374145508 L 10.074000358581543 -39.058998107910156 L 10.657880783081055 -37.38095474243164 L 10.788000106811523 -37.00699996948242 L 11.97700023651123 -35.361000061035156 L 13.616999626159668 -34.15800094604492 L 15 -33.67398452758789 L 15.680000305175781 -33.43600082397461 L 16.384000778198242 -33.36780548095703 L 18.167999267578125 -33.19499969482422 L 19.926000595092773 -33.268001556396484 L 21.493999481201172 -33.48500061035156 L 22.874000549316406 -33.84600067138672 L 22.874000549316406 -35.525386810302734 L 22.874000549316406 -35.63800048828125 L 21.24799919128418 -35.28499984741211 L 19.81399917602539 -35.073001861572266 L 18.572999954223633 -35.00299835205078 L 16.716999053955078 -35.1870002746582 L 16.384000778198242 -35.30757522583008 L 15.187000274658203 -35.74100112915039 L 15 -35.88420104980469 L 13.982999801635742 -36.66299819946289 L 13.104000091552734 -37.93899917602539 L 12.57699966430664 -39.55099868774414 L 12.449698448181152 -40.959999084472656 L 12.401000022888184 -41.499000549316406 L 12.588000297546387 -43.349998474121094 L 13.147000312805176 -44.92900085449219 L 14.079000473022461 -46.23699951171875 M 47.49913787841797 -33.404502868652344 L 48.37200164794922 -33.19499969482422 L 49.152000427246094 -33.28571701049805 L 50.19245147705078 -33.40672302246094 L 50.426998138427734 -33.433998107910156 L 51.41212463378906 -33.84504318237305 L 52.143001556396484 -34.150001525878906 L 52.32978820800781 -34.31184768676758 L 53.520999908447266 -35.34400177001953 L 54.52799987792969 -36.99100112915039 L 55.132999420166016 -39.04199981689453 L 55.2899055480957 -40.959999084472656 L 55.33399963378906 -41.499000549316406 L 55.229270935058594 -42.792057037353516 L 55.1349983215332 -43.95600128173828 L 54.695003509521484 -45.4658203125 L 54.5369987487793 -46.007999420166016 L 53.753265380859375 -47.30320739746094 L 53.54100036621094 -47.65399932861328 L 52.17300033569336 -48.856998443603516 L 51.47431564331055 -49.152000427246094 L 50.47247314453125 -49.57500076293945 L 50.4630012512207 -49.57899856567383 L 49.152000427246094 -49.7328987121582 L 48.40999984741211 -49.81999969482422 L 45.59656524658203 -49.152000427246094 L 45.01453399658203 -49.0138053894043 L 44.53099822998047 -48.89899826049805 L 43.212730407714844 -47.33373260498047 L 42.20399856567383 -46.13600158691406 L 41.550140380859375 -42.256649017333984 L 41.428001403808594 -41.53200149536133 L 42.20000076293945 -36.900001525878906 L 44.513999938964844 -34.12099838256836 L 47.49913787841797 -33.404502868652344 M 5.269999980926514 42.76100158691406 L 8.192000389099121 42.76100158691406 L 8.260000228881836 42.76100158691406 L 12.664608001708984 49.152000427246094 L 12.850000381469727 49.42100143432617 L 15.723999977111816 49.42100143432617 L 15.529773712158203 49.152000427246094 L 10.515999794006348 42.20800018310547 L 12.626999855041504 41.202999114990234 L 12.839478492736816 40.959999084472656 L 13.894000053405762 39.75400161743164 L 14.315999984741211 37.86000061035156 L 13.559000015258789 35.308998107910156 L 12.288000106811523 34.45195770263672 L 11.289999961853027 33.77899932861328 L 8.192000389099121 33.36052703857422 L 7.506999969482422 33.268001556396484 L 5.269999980926514 33.268001556396484 L 2.8399999141693115 33.268001556396484 L 2.8399999141693115 49.152000427246094 L 2.8399999141693115 49.42100143432617 L 5.269999980926514 49.42100143432617 L 5.269999980926514 49.152000427246094 L 5.269999980926514 42.76100158691406 M 49.75199890136719 -35.18000030517578 L 49.152000427246094 -35.10304260253906 L 48.37200164794922 -35.00299835205078 L 45.93899917602539 -35.72600173950195 L 44.47999954223633 -37.89699935913086 L 43.99399948120117 -41.51599884033203 L 44.48400115966797 -45.11600112915039 L 45.957000732421875 -47.2760009765625 L 48.40999984741211 -47.99599838256836 L 49.152000427246094 -47.89979553222656 L 49.75199890136719 -47.821998596191406 L 50.845001220703125 -47.30099868774414 L 51.68899917602539 -46.43299865722656 L 52.27799987792969 -45.185001373291016 L 52.63199996948242 -43.54499816894531 L 52.75 -41.51599884033203 L 52.717567443847656 -40.959999084472656 L 52.63199996948242 -39.49300003051758 L 52.27799987792969 -37.854000091552734 L 51.68899917602539 -36.597999572753906 L 50.858001708984375 -35.71200180053711 L 49.75199890136719 -35.18000030517578 M 64.73999786376953 -47.74100112915039 L 65.53600311279297 -47.57881164550781 L 65.85900115966797 -47.51300048828125 L 66.69400024414062 -47.132999420166016 L 67.27300262451172 -46.57899856567383 L 67.62000274658203 -45.83000183105469 L 67.7151107788086 -45.055999755859375 L 67.73600006103516 -44.88600158691406 L 67.61799621582031 -43.917999267578125 L 67.26399993896484 -43.141998291015625 L 66.67500305175781 -42.55799865722656 L 65.8479995727539 -42.15999984741211 L 65.53600311279297 -42.09177780151367 L 64.75499725341797 -41.92100143432617 L 63.395999908447266 -41.840999603271484 L 63.052406311035156 -41.840999603271484 L 61.275001525878906 -41.840999603271484 L 61.275001525878906 -44.419979095458984 L 61.275001525878906 -47.81700134277344 L 63.3380012512207 -47.81700134277344 L 64.73999786376953 -47.74100112915039 M 23.304000854492188 34.847999572753906 L 23.304000854492188 47.72440719604492 L 23.304000854492188 47.858001708984375 L 19.427000045776367 48.069000244140625 L 19.427000045776367 49.42100143432617 L 23.304000854492188 49.42100143432617 L 29.57200050354004 49.42100143432617 L 29.57200050354004 48.069000244140625 L 25.733999252319336 47.858001708984375 L 25.733999252319336 34.98087692260742 L 25.733999252319336 34.847999572753906 L 29.57200050354004 34.63600158691406 L 29.57200050354004 33.268001556396484 L 25.733999252319336 33.268001556396484 L 19.427000045776367 33.268001556396484 L 19.427000045776367 34.63600158691406 L 23.304000854492188 34.847999572753906 M -60.763648986816406 -49.00040817260742 L -61.122684478759766 -49.152000427246094 L -62.12452697753906 -49.57500076293945 L -62.13399887084961 -49.57899856567383 L -64.18699645996094 -49.81999969482422 L -65.53600311279297 -49.49970245361328 L -67.00043487548828 -49.152000427246094 L -68.06600189208984 -48.89899826049805 L -69.0320053100586 -47.75199890136719 L -69.38652038574219 -47.33106231689453 L -70.39299774169922 -46.13600158691406 L -71.04685974121094 -42.256649017333984 L -71.16899871826172 -41.53200149536133 L -70.39700317382812 -36.900001525878906 L -68.08300018310547 -34.12099838256836 L -65.53600311279297 -33.5095100402832 L -64.22599792480469 -33.19499969482422 L -64.08859252929688 -33.21097183227539 L -62.404541015625 -33.406734466552734 L -62.16999816894531 -33.433998107910156 L -61.18487548828125 -33.84504318237305 L -60.45399856567383 -34.150001525878906 L -60.2672119140625 -34.31184768676758 L -59.07600021362305 -35.34400177001953 L -58.069000244140625 -36.99100112915039 L -57.4640007019043 -39.04199981689453 L -57.34400177001953 -40.50886535644531 L -57.26300048828125 -41.499000549316406 L -57.34400177001953 -42.49908447265625 L -57.36811065673828 -42.796756744384766 L -57.46200180053711 -43.95600128173828 L -57.90126419067383 -45.463314056396484 L -58.060001373291016 -46.007999420166016 L -58.84458923339844 -47.30331802368164 L -59.05699920654297 -47.65399932861328 L -60.42399978637695 -48.856998443603516 L -60.763648986816406 -49.00040817260742 M -60.26499938964844 47.47999954223633 L -62.08100128173828 46.94599914550781 L -62.08100128173828 47.1558952331543 L -62.08100128173828 47.584232330322266 L -62.08100128173828 48.900001525878906 L -61.19294357299805 49.152000427246094 L -60.6150016784668 49.316001892089844 L -58.814998626708984 49.566001892089844 L -56.68000030517578 49.64899826049805 L -54.61399841308594 49.51499938964844 L -53.05815505981445 49.152000427246094 L -52.89099884033203 49.112998962402344 L -51.6772575378418 48.524600982666016 L -51.51100158691406 48.444000244140625 L -50.50400161743164 47.53900146484375 L -49.900001525878906 46.43199920654297 L -49.698001861572266 45.12200164794922 L -49.70576477050781 45.055999755859375 L -49.75358200073242 44.649566650390625 L -49.77412414550781 44.47492980957031 L -49.79871368408203 44.26594543457031 L -49.81800079345703 44.10200119018555 L -50.178001403808594 43.21200180053711 L -50.77799987792969 42.45199966430664 L -51.731998443603516 41.77299880981445 L -53.15299987792969 41.10599899291992 L -53.57255554199219 40.959999084472656 L -55.04100036621094 40.44900131225586 L -56.61399841308594 39.93899917602539 L -57.14834976196289 39.715667724609375 L -57.34400177001953 39.63389587402344 L -57.784000396728516 39.45000076293945 L -58.55099868774414 38.98400115966797 L -59.02299880981445 38.479000091552734 L -59.30500030517578 37.875999450683594 L -59.400001525878906 37.17599868774414 L -59.29745864868164 36.86399841308594 L -58.97800064086914 35.891998291015625 L -57.71099853515625 35.12099838256836 L -57.34400177001953 35.07632064819336 L -55.599998474121094 34.86399841308594 L -54.12099838256836 34.959999084472656 L -52.566001892089844 35.24800109863281 L -50.93299865722656 35.72700119018555 L -50.85734176635742 35.564456939697266 L -50.679954528808594 35.183353424072266 L -50.226829528808594 34.20985412597656 L -50.08399963378906 33.90299987792969 L -51.77899932861328 33.42399978637695 L -53.5989990234375 33.13600158691406 L -55.54199981689453 33.040000915527344 L -57.34400177001953 33.16112518310547 L -57.356998443603516 33.1619987487793 L -58.14166259765625 33.34731674194336 L -58.89400100708008 33.525001525878906 L -60.152000427246094 34.13100051879883 L -61.08399963378906 34.95100021362305 L -61.643001556396484 35.95500183105469 L -61.78596115112305 36.86399841308594 L -61.80815124511719 37.00507736206055 L -61.83000183105469 37.14400100708008 L -61.754371643066406 37.79058837890625 L -61.69900131225586 38.263999938964844 L -61.30699920654297 39.23500061035156 L -60.65299987792969 40.05799865722656 L -59.70000076293945 40.77299880981445 L -59.32571029663086 40.959999084472656 L -58.40700149536133 41.41899871826172 L -57.34400177001953 41.7952880859375 L -56.777000427246094 41.99599838256836 L -55.119998931884766 42.53499984741211 L -53.93252182006836 43.00291061401367 L -53.87900161743164 43.02399826049805 L -53.05400085449219 43.46099853515625 L -52.55099868774414 43.93199920654297 L -52.24800109863281 44.518001556396484 L -52.17136001586914 45.055999755859375 L -52.14799880981445 45.220001220703125 L -52.65299987792969 46.71200180053711 L -54.17100143432617 47.608001708984375 L -56.69900131225586 47.90599822998047 L -57.34400177001953 47.86743927001953 L -58.47200012207031 47.79999923706055 L -60.26499938964844 47.47999954223633 M 81.73799896240234 -39.70800018310547 L 81.91999816894531 -39.990135192871094 L 85.75299835205078 -45.932037353515625 L 88.10299682617188 -49.57500076293945 L 85.75299835205078 -49.57500076293945 L 85.45999908447266 -49.57500076293945 L 81.91999816894531 -43.737144470214844 L 81.73799896240234 -43.43700408935547 L 80.50399780273438 -41.402000427246094 L 75.84053802490234 -49.152000427246094 L 75.58599853515625 -49.57500076293945 L 72.94300079345703 -49.57500076293945 L 73.21275329589844 -49.152000427246094 L 73.72799682617188 -48.34403610229492 L 79.30799865722656 -39.59400177001953 L 79.30799865722656 -33.42300033569336 L 81.73799896240234 -33.42300033569336 L 81.73799896240234 -35.78350067138672 L 81.73799896240234 -39.70800018310547 M 56.66999816894531 41.44200134277344 L 51.75199890136719 33.268001556396484 L 49.152000427246094 33.268001556396484 L 49.11000061035156 33.268001556396484 L 49.152000427246094 33.333866119384766 L 55.474998474121094 43.25 L 55.474998474121094 49.42100143432617 L 57.904998779296875 49.42100143432617 L 57.904998779296875 47.060882568359375 L 57.904998779296875 43.13600158691406 L 64.2699966430664 33.268001556396484 L 61.62699890136719 33.268001556396484 L 57.904998779296875 39.40550994873047 L 56.66999816894531 41.44200134277344 M -42.58100128173828 35.09199905395508 L -34.48099899291992 35.09199905395508 L -33.979000091552734 35.09199905395508 L -33.979000091552734 33.268001556396484 L -34.48099899291992 33.268001556396484 L -42.58100128173828 33.268001556396484 L -45.01100158691406 33.268001556396484 L -45.01100158691406 47.612998962402344 L -45.01100158691406 49.42100143432617 L -33.979000091552734 49.42100143432617 L -33.979000091552734 47.612998962402344 L -42.58100128173828 47.612998962402344 L -42.58100128173828 41.89799880981445 L -34.48099899291992 41.89799880981445 L -34.48099899291992 40.07500076293945 L -42.58100128173828 40.07500076293945 L -42.58100128173828 35.09199905395508 M 8.75 40.92300033569336 L 8.192000389099121 40.95587158203125 L 7.392000198364258 41.00299835205078 L 5.269999980926514 41.00299835205078 L 5.269999980926514 35.027000427246094 L 7.334000110626221 35.027000427246094 L 8.192000389099121 35.073543548583984 L 8.734999656677246 35.10300064086914 L 9.854000091552734 35.33100128173828 L 10.6899995803833 35.71099853515625 L 11.267999649047852 36.263999938964844 L 11.616000175476074 37.01300048828125 L 11.730999946594238 37.95800018310547 L 11.61400032043457 38.92599868774414 L 11.260000228881836 39.70199966430664 L 10.670999526977539 40.2859992980957 L 9.843000411987305 40.683998107910156 L 8.75 40.92300033569336 M -66.64099884033203 -47.2760009765625 L -65.53600311279297 -47.60020446777344 L -64.18699645996094 -47.99599838256836 L -62.845001220703125 -47.821998596191406 L -61.75299835205078 -47.30099868774414 L -60.90800094604492 -46.43299865722656 L -60.319000244140625 -45.185001373291016 L -59.96500015258789 -43.54499816894531 L -59.84700012207031 -41.51599884033203 L -59.879432678222656 -40.959999084472656 L -59.96500015258789 -39.49300003051758 L -60.319000244140625 -37.854000091552734 L -60.90800094604492 -36.597999572753906 L -61.7400016784668 -35.71200180053711 L -62.845001220703125 -35.18000030517578 L -64.22599792480469 -35.00299835205078 L -65.53600311279297 -35.3924446105957 L -66.65799713134766 -35.72600173950195 L -68.11699676513672 -37.89699935913086 L -68.60399627685547 -41.51599884033203 L -68.11299896240234 -45.11600112915039 L -66.64099884033203 -47.2760009765625 M -100 60 L -100 -60 L -87.02300262451172 -60 L -85.50299835205078 -60 L -39.500999450683594 -60 L -25.000999450683594 -60 L -15 -60 L -10 -60 L 10 -60 L 15 -60 L 25.000999450683594 -60 L 39.750999450683594 -60 L 85.75299835205078 -60 L 88.10299682617188 -60 L 100 -60 L 100 -33.19499969482422 L 100 10.00100040435791 L 100 22.503000259399414 L 100 49.64899826049805 L 100 60 L 39.750999450683594 60 L -25.000999450683594 60 L -62.08100128173828 60 L -85.50299835205078 60 L -87.02300262451172 60 L -100 60 M -3.1050000190734863 -38.422000885009766 L 0 -38.422000885009766 L 2.7041311264038086 -38.422000885009766 L 2.9607224464416504 -38.422000885009766 L 3.1642239093780518 -38.422000885009766 L 3.3000919818878174 -38.422000885009766 L 3.316999912261963 -38.422000885009766 L 5.206999778747559 -33.42300033569336 L 7.734000205993652 -33.42300033569336 L 5.772066593170166 -38.422000885009766 L 1.560915470123291 -49.152000427246094 L 1.36899995803833 -49.64099884033203 L 0 -49.64099884033203 L -1.1770000457763672 -49.64099884033203 L -1.3677395582199097 -49.152000427246094 L -1.913824200630188 -47.75199890136719 L -4.842007637023926 -40.244998931884766 L -7.502999782562256 -33.42300033569336 L -5.033999919891357 -33.42300033569336 L -3.1050000190734863 -38.422000885009766 M 2.622999906539917 -40.244998931884766 L 2.5252552032470703 -40.244998931884766 L 2.3719544410705566 -40.244998931884766 L 2.172227621078491 -40.244998931884766 L 0 -40.244998931884766 L -2.401546001434326 -40.244998931884766 L -2.4110000133514404 -40.244998931884766 L -0.5210000276565552 -45.40700149536133 L -0.3089999854564667 -46.04399871826172 L -0.10899999737739563 -46.71699905395508 L 0 -47.13248825073242 L 0.07699999958276749 -47.42599868774414 L 0.30399999022483826 -46.64799880981445 L 0.5740000009536743 -45.8120002746582 L 0.8870000243186951 -44.91899871826172 L 2.622999906539917 -40.244998931884766 M -25.84000015258789 36.60599899291992 L -25.000999450683594 35.953670501708984 L -24.594999313354492 35.63800048828125 L -24.576000213623047 35.63064193725586 L -23.097000122070312 35.05799865722656 L -21.34600067138672 34.86399841308594 L -20.020000457763672 34.959999084472656 L -18.68899917602539 35.24800109863281 L -17.354000091552734 35.72700119018555 L -17.25247573852539 35.558834075927734 L -17.021991729736328 35.17705154418945 L -16.50950050354004 34.32814407348633 L -16.384000778198242 34.120262145996094 L -16.312000274658203 34.000999450683594 L -16.384000778198242 33.975555419921875 L -17.822999954223633 33.46699905395508 L -18.603435516357422 33.31816864013672 L -19.500999450683594 33.14699935913086 L -21.34600067138672 33.040000915527344 L -23.857999801635742 33.290000915527344 L -24.576000213623047 33.54200744628906 L -25.000999450683594 33.6911735534668 L -25.314273834228516 33.80112838745117 L -25.992000579833984 34.03900146484375 L -26.844709396362305 34.64468002319336 L -27.749000549316406 35.2869987487793 L -29.04599952697754 36.95000076293945 L -29.823999404907227 38.9640007019043 L -30.042682647705078 40.959999084472656 L -30.08300018310547 41.327999114990234 L -29.907508850097656 43.13969421386719 L -29.844999313354492 43.78499984741211 L -29.262054443359375 45.46270751953125 L -29.131999969482422 45.83700180053711 L -27.941999435424805 47.483001708984375 L -26.30299949645996 48.68600082397461 L -25.000999450683594 49.141448974609375 L -24.970834732055664 49.152000427246094 L -24.23900032043457 49.40800094604492 L -21.750999450683594 49.64899826049805 L -19.993999481201172 49.57600021362305 L -18.424999237060547 49.35900115966797 L -17.635883331298828 49.152000427246094 L -17.045000076293945 48.99700164794922 L -17.045000076293945 47.31829833984375 L -17.045000076293945 47.20600128173828 L -18.672000885009766 47.558998107910156 L -20.104999542236328 47.770999908447266 L -21.34600067138672 47.840999603271484 L -23.20199966430664 47.65700149536133 L -24.576000213623047 47.15948486328125 L -24.73200035095215 47.10300064086914 L -25.000999450683594 46.897003173828125 L -25.93600082397461 46.180999755859375 L -26.815000534057617 44.904998779296875 L -27.341999053955078 43.292999267578125 L -27.51799964904785 41.345001220703125 L -27.479312896728516 40.959999084472656 L -27.332000732421875 39.49399948120117 L -26.77199935913086 37.91400146484375 L -25.84000015258789 36.60599899291992 M 64.26399993896484 -40.08300018310547 L 65.53600311279297 -38.23735427856445 L 68.85399627685547 -33.42300033569336 L 71.72799682617188 -33.42300033569336 L 66.52100372314453 -40.63600158691406 L 67.20223999023438 -40.959999084472656 L 67.26081085205078 -40.987857818603516 L 68.16232299804688 -41.41661834716797 L 68.63200378417969 -41.63999938964844 L 69.89800262451172 -43.09000015258789 L 70.31999969482422 -44.98400115966797 L 70.29866027832031 -45.055999755859375 L 70.14911651611328 -45.560611724853516 L 69.80903625488281 -46.708168029785156 L 69.56400299072266 -47.53499984741211 L 67.29399871826172 -49.064998626708984 L 66.64883422851562 -49.152000427246094 L 65.53600311279297 -49.302066802978516 L 63.512001037597656 -49.57500076293945 L 58.84400177001953 -49.57500076293945 L 58.84400177001953 -49.152000427246094 L 58.84400177001953 -47.94731521606445 L 58.84400177001953 -33.42300033569336 L 61.275001525878906 -33.42300033569336 L 61.275001525878906 -40.08300018310547 L 64.26399993896484 -40.08300018310547 M -18.399999618530273 -47.75199890136719 L -16.384000778198242 -47.75199890136719 L -15 -47.75199890136719 L -10.319000244140625 -47.75199890136719 L -10 -47.75199890136719 L -9.817000389099121 -47.75199890136719 L -9.817000389099121 -49.152000427246094 L -9.817000389099121 -49.57500076293945 L -10 -49.57500076293945 L -15 -49.57500076293945 L -16.384000778198242 -49.57500076293945 L -18.399999618530273 -49.57500076293945 L -20.829999923706055 -49.57500076293945 L -20.829999923706055 -42.069000244140625 L -20.829999923706055 -40.244998931884766 L -20.829999923706055 -33.42300033569336 L -18.399999618530273 -33.42300033569336 L -18.399999618530273 -40.244998931884766 L -16.384000778198242 -40.244998931884766 L -15 -40.244998931884766 L -10.319000244140625 -40.244998931884766 L -10.319000244140625 -42.069000244140625 L -15 -42.069000244140625 L -16.384000778198242 -42.069000244140625 L -18.399999618530273 -42.069000244140625 L -18.399999618530273 -47.75199890136719 M -10.359646797180176 49.152000427246094 L -7.729000091552734 49.64899826049805 L -5.769000053405762 49.47999954223633 L -4.718618869781494 49.152000427246094 L -4.15500020980835 48.97600173950195 L -3.678999900817871 48.65966796875 L -2.888000011444092 48.13399887084961 L -1.9670000076293945 46.965999603271484 L -1.4140000343322754 45.5 L -1.2300000190734863 43.737998962402344 L -1.2300000190734863 33.25199890136719 L -3.678999900817871 33.25199890136719 L -3.678999900817871 43.542999267578125 L -4.139999866485596 45.930999755859375 L -5.445000171661377 47.36399841308594 L -7.593999862670898 47.840999603271484 L -8.192000389099121 47.71383285522461 L -9.822999954223633 47.367000579833984 L -11.15999984741211 45.94499969482422 L -11.605999946594238 43.57500076293945 L -11.605999946594238 33.28499984741211 L -13.54242992401123 33.28499984741211 L -14.03600025177002 33.28499984741211 L -14.03600025177002 42.88615798950195 L -14.03600025177002 43.68899917602539 L -13.420129776000977 46.60206604003906 L -13.336000442504883 47 L -11.232999801635742 48.98699951171875 L -10.359646797180176 49.152000427246094 M 33.481998443603516 -47.75199890136719 L 38.939998626708984 -47.75199890136719 L 38.939998626708984 -49.152000427246094 L 38.939998626708984 -49.57500076293945 L 32.768001556396484 -49.57500076293945 L 25.573999404907227 -49.57500076293945 L 25.573999404907227 -49.152000427246094 L 25.573999404907227 -47.75199890136719 L 31.052000045776367 -47.75199890136719 L 31.052000045776367 -33.42300033569336 L 32.768001556396484 -33.42300033569336 L 33.481998443603516 -33.42300033569336 L 33.481998443603516 -47.75199890136719 M -79.50199890136719 -3 L -85.50299835205078 -3 L -85.50299835205078 3 L -79.50199890136719 3 L -79.50199890136719 -3 M -48.17900085449219 -41.402000427246094 L -49.152000427246094 -43.018985748291016 L -52.842464447021484 -49.152000427246094 L -53.09700012207031 -49.57500076293945 L -55.73899841308594 -49.57500076293945 L -55.46929168701172 -49.152000427246094 L -49.375 -39.59400177001953 L -49.375 -33.42300033569336 L -49.152000427246094 -33.42300033569336 L -46.944000244140625 -33.42300033569336 L -46.944000244140625 -39.70800018310547 L -40.58000183105469 -49.57500076293945 L -43.22200012207031 -49.57500076293945 L -46.944000244140625 -43.4382438659668 L -48.17900085449219 -41.402000427246094 M 65.53600311279297 22.503000259399414 L 65.75199890136719 22.503000259399414 L 65.75199890136719 16.50200080871582 L 65.53600311279297 16.50200080871582 L 59.75199890136719 16.50200080871582 L 59.75199890136719 22.503000259399414 L 64.2699966430664 22.503000259399414 L 65.53600311279297 22.503000259399414 M -79.50199890136719 16.50200080871582 L -85.50299835205078 16.50200080871582 L -85.50299835205078 22.503000259399414 L -79.50199890136719 22.503000259399414 L -79.50199890136719 16.50200080871582 M -39.500999450683594 4.440892164675075e-17 L -39.500999450683594 -3 L -45.500999450683594 -3 L -45.500999450683594 4.440892164675075e-17 L -45.500999450683594 3 L -39.500999450683594 3 L -39.500999450683594 4.440892164675075e-17 M 39.388999938964844 35.09199905395508 L 39.388999938964844 49.42100143432617 L 39.750999450683594 49.42100143432617 L 41.819000244140625 49.42100143432617 L 41.819000244140625 35.09199905395508 L 47.27799987792969 35.09199905395508 L 47.27799987792969 33.268001556396484 L 39.750999450683594 33.268001556396484 L 33.9119987487793 33.268001556396484 L 33.9119987487793 35.09199905395508 L 39.388999938964844 35.09199905395508 M -81.54499816894531 -47.75199890136719 L -81.54499816894531 -33.42300033569336 L -79.11499786376953 -33.42300033569336 L -79.11499786376953 -47.75199890136719 L -73.72799682617188 -47.75199890136719 L -73.65699768066406 -47.75199890136719 L -73.65699768066406 -49.152000427246094 L -73.65699768066406 -49.57500076293945 L -81.91999816894531 -49.57500076293945 L -85.50299835205078 -49.57500076293945 L -87.02300262451172 -49.57500076293945 L -87.02300262451172 -47.75199890136719 L -85.50299835205078 -47.75199890136719 L -81.91999816894531 -47.75199890136719 L -81.54499816894531 -47.75199890136719 M -59.50199890136719 -16.50200080871582 L -59.50199890136719 -22.503000259399414 L -65.50199890136719 -22.503000259399414 L -65.50199890136719 -16.50200080871582 L -59.50199890136719 -16.50200080871582 M 65.53600311279297 -22.503000259399414 L 59.75199890136719 -22.503000259399414 L 59.75199890136719 -16.50200080871582 L 65.53600311279297 -16.50200080871582 L 65.75199890136719 -16.50200080871582 L 65.75199890136719 -22.503000259399414 L 65.53600311279297 -22.503000259399414 M -62.08100128173828 22.503000259399414 L -59.50199890136719 22.503000259399414 L -59.50199890136719 16.50200080871582 L -65.50199890136719 16.50200080871582 L -65.50199890136719 22.503000259399414 L -62.08100128173828 22.503000259399414 M 45.750999450683594 22.503000259399414 L 45.750999450683594 16.50200080871582 L 39.750999450683594 16.50200080871582 L 39.750999450683594 22.503000259399414 L 45.750999450683594 22.503000259399414 M 79.75199890136719 3 L 85.75299835205078 3 L 85.75299835205078 -3 L 79.75199890136719 -3 L 79.75199890136719 3 M 39.750999450683594 -16.50200080871582 L 45.750999450683594 -16.50200080871582 L 45.750999450683594 -22.503000259399414 L 39.750999450683594 -22.503000259399414 L 39.750999450683594 -16.50200080871582 M 65.75199890136719 3 L 65.75199890136719 -3 L 65.53600311279297 -3 L 59.75199890136719 -3 L 59.75199890136719 3 L 65.53600311279297 3 L 65.75199890136719 3 M 79.75199890136719 -22.503000259399414 L 79.75199890136719 -16.50200080871582 L 85.75299835205078 -16.50200080871582 L 85.75299835205078 -22.503000259399414 L 79.75199890136719 -22.503000259399414 M 79.75199890136719 16.50200080871582 L 79.75199890136719 22.503000259399414 L 85.75299835205078 22.503000259399414 L 85.75299835205078 16.50200080871582 L 79.75199890136719 16.50200080871582 M 39.750999450683594 3 L 45.750999450683594 3 L 45.750999450683594 -3 L 39.750999450683594 -3 L 39.750999450683594 3 M -79.50199890136719 -22.503000259399414 L -85.50299835205078 -22.503000259399414 L -85.50299835205078 -16.50200080871582 L -79.50199890136719 -16.50200080871582 L -79.50199890136719 -22.503000259399414 M -39.500999450683594 16.50200080871582 L -45.500999450683594 16.50200080871582 L -45.500999450683594 22.503000259399414 L -39.500999450683594 22.503000259399414 L -39.500999450683594 16.50200080871582 M -59.50199890136719 -3 L -65.50199890136719 -3 L -65.50199890136719 4.440892164675075e-17 L -65.50199890136719 3 L -59.50199890136719 3 L -59.50199890136719 4.440892164675075e-17 L -59.50199890136719 -3 M 25.000999450683594 -5.000999927520752 L 15 -5.000999927520752 L 15 5.000999927520752 L 25.000999450683594 5.000999927520752 L 25.000999450683594 -5.000999927520752 M -15 5.000999927520752 L -15 -5.000999927520752 L -25.000999450683594 -5.000999927520752 L -25.000999450683594 5.000999927520752 L -15 5.000999927520752 M -45.500999450683594 -22.503000259399414 L -45.500999450683594 -16.50200080871582 L -39.500999450683594 -16.50200080871582 L -39.500999450683594 -22.503000259399414 L -45.500999450683594 -22.503000259399414 M 10 -10.00100040435791 L -10 -10.00100040435791 L -10 10.00100040435791 L 10 10.00100040435791 L 10 -10.00100040435791 z" fill="none" stroke="rgb(0,0,255)" stroke-width="0.01mm" />
</svg>